<?xml version="1.0" encoding="UTF-8"?>
<!DOCTYPE svg PUBLIC "-//W3C//DTD SVG 1.1//EN" "http://www.w3.org/Graphics/SVG/1.1/DTD/svg11.dtd">
<svg xmlns="http://www.w3.org/2000/svg" version="1.1" width="500px" height="153px" style="shape-rendering:geometricPrecision; text-rendering:geometricPrecision; image-rendering:optimizeQuality; fill-rule:evenodd; clip-rule:evenodd" xmlns:xlink="http://www.w3.org/1999/xlink">
<g><path style="opacity:1" fill="#fdfdfd" d="M -0.5,-0.5 C 166.167,-0.5 332.833,-0.5 499.5,-0.5C 499.5,50.5 499.5,101.5 499.5,152.5C 332.833,152.5 166.167,152.5 -0.5,152.5C -0.5,138.167 -0.5,123.833 -0.5,109.5C 2.44753,109.777 5.28086,109.444 8,108.5C 8.49991,94.504 8.66657,80.504 8.5,66.5C 5.5,66.5 2.5,66.5 -0.5,66.5C -0.5,44.1667 -0.5,21.8333 -0.5,-0.5 Z"/></g>
<g><path style="opacity:1" fill="#1774f7" d="M 42.5,121.5 C 42.5,112.833 42.5,104.167 42.5,95.5C 43.3171,93.0314 43.8171,90.3647 44,87.5C 44.3333,68.8333 44.6667,50.1667 45,31.5C 45.6667,28.8333 46.3333,28.8333 47,31.5C 47.4974,34.146 47.6641,36.8127 47.5,39.5C 48.5,39.5 49.5,39.5 50.5,39.5C 50.6666,67.1687 50.5,94.8353 50,122.5C 49.8142,120.1 49.3142,117.766 48.5,115.5C 47.069,115.977 45.7357,116.643 44.5,117.5C 45.325,118.386 46.325,118.719 47.5,118.5C 47.5,119.5 47.5,120.5 47.5,121.5C 45.8333,121.5 44.1667,121.5 42.5,121.5 Z"/></g>
<g><path style="opacity:1" fill="#2776ee" d="M 50.5,125.5 C 47.8333,125.5 45.1667,125.5 42.5,125.5C 42.5,124.167 42.5,122.833 42.5,121.5C 44.1667,121.5 45.8333,121.5 47.5,121.5C 47.5,120.5 47.5,119.5 47.5,118.5C 46.325,118.719 45.325,118.386 44.5,117.5C 45.7357,116.643 47.069,115.977 48.5,115.5C 49.3142,117.766 49.8142,120.1 50,122.5C 50.5,94.8353 50.6666,67.1687 50.5,39.5C 49.5,39.5 48.5,39.5 47.5,39.5C 47.6641,36.8127 47.4974,34.146 47,31.5C 46.3333,28.8333 45.6667,28.8333 45,31.5C 44.6667,50.1667 44.3333,68.8333 44,87.5C 43.8171,90.3647 43.3171,93.0314 42.5,95.5C 42.5,72.8333 42.5,50.1667 42.5,27.5C 45.2869,26.5233 48.2869,26.19 51.5,26.5C 51.8316,59.6709 51.4983,92.6709 50.5,125.5 Z"/></g>
<g><path style="opacity:1" fill="#7d7ac5" d="M 87.5,54.5 C 86.5143,72.0899 86.181,89.7566 86.5,107.5C 85.8335,98.8398 85.5002,90.0064 85.5,81C 85.5018,71.8071 86.1685,62.9738 87.5,54.5 Z"/></g>
<g><path style="opacity:1" fill="#0809bc" d="M 87.5,54.5 C 90.1667,54.5 92.8333,54.5 95.5,54.5C 95.5,72.5 95.5,90.5 95.5,108.5C 92.2869,108.81 89.2869,108.477 86.5,107.5C 86.181,89.7566 86.5143,72.0899 87.5,54.5 Z"/></g>
<g><path style="opacity:1" fill="#1036d1" d="M 65.5,78.5 C 67.8333,78.5 70.1667,78.5 72.5,78.5C 72.5,79.5 72.5,80.5 72.5,81.5C 71.1667,81.5 69.8333,81.5 68.5,81.5C 68.5937,87.8546 68.2604,94.1879 67.5,100.5C 67.9298,106.991 68.9298,106.991 70.5,100.5C 71.2922,102.465 71.9588,104.465 72.5,106.5C 69.9135,107.48 67.2469,107.813 64.5,107.5C 64.1729,97.6522 64.5062,87.9856 65.5,78.5 Z"/></g>
<g><path style="opacity:1" fill="#143dcc" d="M 65.5,78.5 C 65.5,78.1667 65.5,77.8333 65.5,77.5C 68.1667,77.5 70.8333,77.5 73.5,77.5C 73.5,87.8333 73.5,98.1667 73.5,108.5C 70.2869,108.81 67.2869,108.477 64.5,107.5C 67.2469,107.813 69.9135,107.48 72.5,106.5C 71.9588,104.465 71.2922,102.465 70.5,100.5C 68.9298,106.991 67.9298,106.991 67.5,100.5C 68.2604,94.1879 68.5937,87.8546 68.5,81.5C 69.8333,81.5 71.1667,81.5 72.5,81.5C 72.5,80.5 72.5,79.5 72.5,78.5C 70.1667,78.5 67.8333,78.5 65.5,78.5 Z"/></g>
<g><path style="opacity:1" fill="#3c95f3" d="M -0.5,66.5 C 2.5,66.5 5.5,66.5 8.5,66.5C 8.66657,80.504 8.49991,94.504 8,108.5C 5.28086,109.444 2.44753,109.777 -0.5,109.5C -0.5,95.1667 -0.5,80.8333 -0.5,66.5 Z"/></g>
<g><path style="opacity:1" fill="#93b7e7" d="M 20.5,87.5 C 23.7766,87.2161 26.9433,87.5495 30,88.5C 30.4996,95.4921 30.6663,102.492 30.5,109.5C 26.8333,109.5 23.1667,109.5 19.5,109.5C 19.2027,102.08 19.536,94.7463 20.5,87.5 Z"/></g>
<g><path style="opacity:1" fill="#4a94ed" d="M 21.5,89.5 C 24.1667,89.5 26.8333,89.5 29.5,89.5C 29.5,95.8333 29.5,102.167 29.5,108.5C 26.5,108.5 23.5,108.5 20.5,108.5C 20.2487,102.108 20.582,95.7748 21.5,89.5 Z"/></g>
<g><path style="opacity:1" fill="#687cca" d="M 65.5,77.5 C 65.5,77.8333 65.5,78.1667 65.5,78.5C 64.5062,87.9856 64.1729,97.6522 64.5,107.5C 67.2869,108.477 70.2869,108.81 73.5,108.5C 70.3752,109.479 67.0419,109.813 63.5,109.5C 62.8572,98.4476 63.5238,87.7809 65.5,77.5 Z"/></g>
<g><path style="opacity:1" fill="#6691dd" d="M 42.5,27.5 C 42.5,50.1667 42.5,72.8333 42.5,95.5C 42.5,104.167 42.5,112.833 42.5,121.5C 42.5,122.833 42.5,124.167 42.5,125.5C 45.1667,125.5 47.8333,125.5 50.5,125.5C 47.7131,126.477 44.7131,126.81 41.5,126.5C 41.1684,93.3291 41.5017,60.3291 42.5,27.5 Z"/></g>
</svg>
