<?xml version="1.0" encoding="UTF-8"?>
<svg version="1.1" xmlns="http://www.w3.org/2000/svg" width="483" height="516">
<path d="M0 0 C1.15137876 75.29560402 1.15667271 150.58844633 1.12946078 225.89064273 C1.12494316 238.6570787 1.12581024 251.42350558 1.13037109 264.18994141 C1.13575578 279.26804895 1.13781544 294.34615118 1.13475883 309.42425954 C1.13444046 311.03691252 1.13412609 312.6495655 1.13381577 314.26221848 C1.13358435 315.4505447 1.13358435 315.4505447 1.13334826 316.66287751 C1.1324985 322.14324035 1.13392891 327.62359965 1.13629532 333.10396194 C1.15974516 392.30831297 1.15974516 392.30831297 0.21408081 415.87142944 C-0.06195986 422.84672676 -0.06760929 429.81557877 0.03732109 436.7948513 C0.10636284 443.32347267 -0.44943101 449.39317216 -1 456 C-17.83 456 -34.66 456 -52 456 C-53.05178469 411.38949762 -53.14947593 366.80689084 -53.13529945 322.18642878 C-53.1329936 314.72317357 -53.13273976 307.25992065 -53.13381577 299.79666519 C-53.133969 298.72185586 -53.13412223 297.64704653 -53.13428011 296.53966723 C-53.13459991 294.35462458 -53.13492412 292.16958193 -53.1352527 289.98453929 C-53.13807708 269.69264963 -53.13486585 249.40076455 -53.12945233 229.10887565 C-53.12495989 211.72980807 -53.12578604 194.35074715 -53.13037109 176.97167969 C-53.13572445 156.6715624 -53.13783085 136.37144904 -53.13475883 116.07133114 C-53.13444033 113.90857832 -53.13412596 111.74582549 -53.13381577 109.58307266 C-53.13366149 108.51948773 -53.13350721 107.45590279 -53.13334826 106.36008801 C-53.13248741 98.8916169 -53.13393609 91.42314831 -53.13629532 83.95467758 C-53.13910076 74.87709095 -53.13833815 65.79951297 -53.13301457 56.72192733 C-53.13039184 52.09853303 -53.12934868 47.47515314 -53.13266373 42.85175896 C-53.1356544 38.61705317 -53.13398801 34.38237512 -53.12868617 30.14767183 C-53.12757414 28.6208069 -53.12812606 27.09393959 -53.13056196 25.56707619 C-53.15610552 8.21990594 -53.15610552 8.21990594 -52 1 C-50.4591155 -0.5408845 -48.99800422 -0.17003947 -46.85083008 -0.22119141 C-45.52859184 -0.25595078 -45.52859184 -0.25595078 -44.17964172 -0.29141235 C-43.21930527 -0.3112619 -42.25896881 -0.33111145 -41.26953125 -0.3515625 C-40.28635422 -0.37471527 -39.30317719 -0.39786804 -38.29020691 -0.42172241 C-36.20288431 -0.46945781 -34.11550298 -0.51467986 -32.02807617 -0.55761719 C-28.84335596 -0.62435341 -25.65904612 -0.7022501 -22.47460938 -0.78125 C-20.44793162 -0.82620022 -18.42123914 -0.87049205 -16.39453125 -0.9140625 C-14.9692083 -0.94990952 -14.9692083 -0.94990952 -13.51509094 -0.98648071 C-12.61783798 -1.0033493 -11.72058502 -1.0202179 -10.79614258 -1.03759766 C-10.01306229 -1.05456696 -9.22998199 -1.07153625 -8.423172 -1.08901978 C-5.55582526 -0.98368241 -2.82452847 -0.49026643 0 0 Z " fill="#0478FD" transform="translate(242,26)"/>
<path d="M0 0 C1.79893615 0.09380896 3.59450981 0.25204897 5.38671875 0.43359375 C14.19710851 1.1839523 22.97630086 1.10914992 31.8125 1.0625 C33.48762886 1.05747056 35.16275919 1.05291023 36.83789062 1.04882812 C40.89196439 1.03794708 44.94596531 1.02076371 49 1 C50.0126462 5.17982483 50.1148408 9.08814113 50.09765625 13.38208008 C50.09619598 14.10813446 50.09473572 14.83418884 50.0932312 15.58224487 C50.0894356 17.15473425 50.08333003 18.72721939 50.07516479 20.29969215 C50.06232395 22.8038633 50.05586414 25.30798094 50.05102539 27.81217957 C50.03769573 34.04099267 50.01368539 40.26975581 49.98962402 46.49853516 C49.96969763 51.75190145 49.9541296 57.00524748 49.94406128 62.2586422 C49.93768776 64.69767798 49.92517388 67.13662879 49.91235352 69.57563782 C49.88474879 78.08611295 50.17934494 86.47762947 50.77069092 94.96965027 C51.23133385 102.27745919 51.1434505 109.60281408 51.1328125 116.921875 C51.13348925 118.599874 51.13446233 120.27787291 51.13571167 121.95587158 C51.13717285 125.44845527 51.13508669 128.94101311 51.13037109 132.43359375 C51.12469171 136.84870328 51.12804232 141.26375229 51.13381481 145.67885971 C51.1687781 177.19964959 51.1687781 177.19964959 50.3901825 189.77844238 C49.63412416 202.24989178 49.62611265 214.75999335 49.4375 227.25 C49.39456984 229.95313626 49.35061678 232.65625558 49.30664062 235.359375 C49.20089876 241.90619788 49.09891621 248.45307061 49 255 C29.46067157 256.17737495 29.46067157 256.17737495 20.1875 256.125 C19.31585205 256.12306641 18.4442041 256.12113281 17.54614258 256.11914062 C10.66153033 256.07329839 3.85081203 255.71177268 -3 255 C-4.16629127 251.50112618 -4.1385823 248.36776958 -4.12698364 244.72891235 C-4.12932363 243.60888071 -4.12932363 243.60888071 -4.13171089 242.46622217 C-4.13571032 239.95483788 -4.13253473 237.44351369 -4.12939453 234.93212891 C-4.13074952 233.13280197 -4.13253001 231.33347531 -4.13470459 229.53414917 C-4.13928098 224.6264963 -4.1374849 219.71886437 -4.1343255 214.81121111 C-4.13178672 209.63523841 -4.13414517 204.45926745 -4.13571167 199.28329468 C-4.13753576 190.54514244 -4.13512793 181.80699862 -4.13037109 173.06884766 C-4.12499944 163.0886912 -4.12663742 153.10855539 -4.1321975 143.12839949 C-4.1368086 134.49500884 -4.13733891 125.86162424 -4.13475883 117.22823274 C-4.13322983 112.10327914 -4.13290434 106.97833504 -4.13629532 101.85338211 C-4.14779606 81.42333102 -4.06665091 60.99681817 -3.67265296 40.57004619 C-3.63607111 38.65067771 -3.60201892 36.73125891 -3.57081437 34.81179547 C-3.03653741 3.03653741 -3.03653741 3.03653741 0 0 Z " fill="#0D1CCC" transform="translate(395,151)"/>
<path d="M0 0 C0.92572674 7.8355828 1.14549746 15.5242775 1.1328125 23.41015625 C1.13387878 24.76849902 1.13526852 26.12684157 1.13694763 27.48518372 C1.13978494 31.22299519 1.13528259 34.96076456 1.12877274 38.69857025 C1.12498364 41.07274937 1.12292396 43.44692443 1.12130737 45.82110596 C1.09586428 77.88779972 0.8584833 109.95360757 0.59383392 142.01908493 C0.56246338 145.87950582 0.53267943 149.73993629 0.50323486 153.60037231 C0.45604882 159.72720252 0.40365413 165.85396713 0.34718513 171.98071861 C0.32681647 174.26315649 0.30802807 176.54560907 0.29089165 178.8280735 C0.26689648 181.96861351 0.23690491 185.10904014 0.20532227 188.24951172 C0.19956743 189.17049684 0.1938126 190.09148195 0.18788338 191.04037571 C0.17809393 191.88950503 0.16830448 192.73863436 0.15821838 193.61349487 C0.15176583 194.34477537 0.14531328 195.07605587 0.1386652 195.82949638 C0 198 0 198 -1 203 C-14.53 203 -28.06 203 -42 203 C-42 136.34 -42 69.68 -42 1 C-9 0 -9 0 0 0 Z " fill="#1D91FD" transform="translate(42,203)"/>
<path d="M0 0 C17.16 0 34.32 0 52 0 C52.67429143 9.44008006 53.14128762 18.64250575 53.11352539 28.07373047 C53.11324234 29.41567991 53.11340355 30.75762951 53.1139679 32.09957886 C53.11425128 35.69369054 53.10842979 39.2877679 53.10139394 42.8818717 C53.09508299 46.65611942 53.09455054 50.43036818 53.09336853 54.20462036 C53.09027781 61.32985422 53.08209529 68.45507247 53.07201904 75.5802995 C53.06078721 83.70138646 53.05532975 91.82247422 53.05032361 99.94356704 C53.03991044 116.62905378 53.02235538 133.31452489 53 150 C48.66818359 150.16529513 44.33629656 150.32866437 40.00439453 150.49169922 C38.78424149 150.53828171 37.56408844 150.5848642 36.30696106 150.63285828 C28.15914393 150.93828742 20.02918584 151.15779163 11.875 151.125 C10.8128125 151.12886719 9.750625 151.13273438 8.65625 151.13671875 C1.1270411 151.1270411 1.1270411 151.1270411 0 150 C-0.38749398 145.86143872 -0.42893496 141.69268818 -0.5546875 137.5390625 C-0.5860914 136.53768187 -0.5860914 136.53768187 -0.61812973 135.51607132 C-1.22446557 115.66507203 -1.15126049 95.8029436 -1.13037109 75.94482422 C-1.1246393 70.44700666 -1.12799189 64.94923759 -1.13394356 59.45142174 C-1.13759267 55.1339991 -1.13639143 50.81658759 -1.13381577 46.49916458 C-1.13316033 44.47344583 -1.13392496 42.44772599 -1.13629532 40.42200851 C-1.13889926 37.57737368 -1.13487752 34.73281304 -1.12939453 31.88818359 C-1.13243088 30.69992981 -1.13243088 30.69992981 -1.13552856 29.4876709 C-1.10115495 19.63017724 -0.47022069 9.87463449 0 0 Z " fill="#014BD9" transform="translate(291,256)"/>
<path d="M0 0 C0 33.99 0 67.98 0 103 C-17.16 103 -34.32 103 -52 103 C-52.04010881 77.83395041 -52.04010881 77.83395041 -52.04882812 67.14648438 C-52.05481715 59.84008055 -52.06191902 52.5336892 -52.07543945 45.22729492 C-52.08626637 39.33994853 -52.09227642 33.45261551 -52.09487724 27.56525993 C-52.09673185 25.31367723 -52.10035313 23.06209531 -52.10573006 20.81051826 C-52.11293789 17.66866573 -52.11399105 14.52686917 -52.11352539 11.38500977 C-52.11712067 10.44418045 -52.12071594 9.50335114 -52.12442017 8.53401184 C-52.11405216 2.11405216 -52.11405216 2.11405216 -51 1 C-34.03439189 -0.13104054 -17.00326766 0 0 0 Z " fill="#4D99FA" transform="translate(142,303)"/>
<path d="M0 0 C1.15137876 75.29560402 1.15667271 150.58844633 1.12946078 225.89064273 C1.12494316 238.6570787 1.12581024 251.42350558 1.13037109 264.18994141 C1.13575578 279.26804895 1.13781544 294.34615118 1.13475883 309.42425954 C1.13444046 311.03691252 1.13412609 312.6495655 1.13381577 314.26221848 C1.13358435 315.4505447 1.13358435 315.4505447 1.13334826 316.66287751 C1.1324985 322.14324035 1.13392891 327.62359965 1.13629532 333.10396194 C1.15974516 392.30831297 1.15974516 392.30831297 0.21408081 415.87142944 C-0.06195986 422.84672676 -0.06760929 429.81557877 0.03732109 436.7948513 C0.10636284 443.32347267 -0.44943101 449.39317216 -1 456 C-17.83 456 -34.66 456 -52 456 C-53.05178469 411.38949762 -53.14947593 366.80689084 -53.13529945 322.18642878 C-53.1329936 314.72317357 -53.13273976 307.25992065 -53.13381577 299.79666519 C-53.133969 298.72185586 -53.13412223 297.64704653 -53.13428011 296.53966723 C-53.13459991 294.35462458 -53.13492412 292.16958193 -53.1352527 289.98453929 C-53.13807708 269.69264963 -53.13486585 249.40076455 -53.12945233 229.10887565 C-53.12495989 211.72980807 -53.12578604 194.35074715 -53.13037109 176.97167969 C-53.13572445 156.6715624 -53.13783085 136.37144904 -53.13475883 116.07133114 C-53.13444033 113.90857832 -53.13412596 111.74582549 -53.13381577 109.58307266 C-53.13366149 108.51948773 -53.13350721 107.45590279 -53.13334826 106.36008801 C-53.13248741 98.8916169 -53.13393609 91.42314831 -53.13629532 83.95467758 C-53.13910076 74.87709095 -53.13833815 65.79951297 -53.13301457 56.72192733 C-53.13039184 52.09853303 -53.12934868 47.47515314 -53.13266373 42.85175896 C-53.1356544 38.61705317 -53.13398801 34.38237512 -53.12868617 30.14767183 C-53.12757414 28.6208069 -53.12812606 27.09393959 -53.13056196 25.56707619 C-53.15610552 8.21990594 -53.15610552 8.21990594 -52 1 C-50.4591155 -0.5408845 -48.99800422 -0.17003947 -46.85083008 -0.22119141 C-45.52859184 -0.25595078 -45.52859184 -0.25595078 -44.17964172 -0.29141235 C-43.21930527 -0.3112619 -42.25896881 -0.33111145 -41.26953125 -0.3515625 C-40.28635422 -0.37471527 -39.30317719 -0.39786804 -38.29020691 -0.42172241 C-36.20288431 -0.46945781 -34.11550298 -0.51467986 -32.02807617 -0.55761719 C-28.84335596 -0.62435341 -25.65904612 -0.7022501 -22.47460938 -0.78125 C-20.44793162 -0.82620022 -18.42123914 -0.87049205 -16.39453125 -0.9140625 C-14.9692083 -0.94990952 -14.9692083 -0.94990952 -13.51509094 -0.98648071 C-12.61783798 -1.0033493 -11.72058502 -1.0202179 -10.79614258 -1.03759766 C-10.01306229 -1.05456696 -9.22998199 -1.07153625 -8.423172 -1.08901978 C-5.55582526 -0.98368241 -2.82452847 -0.49026643 0 0 Z M-51 2 C-51.02294545 43.470088 -51.04053829 84.94017526 -51.05106533 126.41026836 C-51.05231587 131.31875965 -51.05361021 136.22725092 -51.05493164 141.13574219 C-51.05519395 142.11283438 -51.05545626 143.08992656 -51.05572652 144.09662761 C-51.06006444 159.86708921 -51.06794156 175.63754712 -51.0771528 191.40800653 C-51.08654174 207.61928975 -51.09206665 223.83057106 -51.09408849 240.04185688 C-51.09545289 250.02543311 -51.09974421 260.0089989 -51.10791647 269.99257191 C-51.11324874 276.86132423 -51.11478975 283.73007126 -51.11350138 290.5988255 C-51.112868 294.54727316 -51.11375959 298.49570276 -51.11920547 302.44414711 C-51.14061338 318.75305231 -50.97485325 335.02476444 -50.22584534 351.32022095 C-49.7928599 361.12703204 -49.87632019 370.9437022 -49.90234375 380.7578125 C-49.90421731 382.89541592 -49.90563675 385.03301977 -49.90663147 387.17062378 C-49.91038298 392.69735986 -49.92014673 398.2240681 -49.93133545 403.75079346 C-49.94171154 409.43021264 -49.94616316 415.10963649 -49.95117188 420.7890625 C-49.96177858 431.85938699 -49.97876188 442.92969115 -50 454 C-44.85881945 454.04966586 -39.71778049 454.08584495 -34.57641602 454.10986328 C-32.82964645 454.11988268 -31.0828935 454.13350195 -29.33618164 454.15087891 C-26.81652715 454.17530669 -24.29709561 454.18652389 -21.77734375 454.1953125 C-21.00414291 454.20563507 -20.23094208 454.21595764 -19.43431091 454.22659302 C-14.58885226 454.22758184 -10.55201133 453.7262591 -6 452 C-1.8704261 444.11626801 -2.87335391 433.62349038 -2.92483521 424.99055481 C-2.93773812 422.8033857 -2.94414956 420.61627813 -2.94897461 418.42907715 C-2.96033589 413.78602365 -2.9795721 409.14302131 -3 404.5 C-3.02369427 399.11457152 -3.04405817 393.72917284 -3.05593872 388.34370422 C-3.0623651 386.20122258 -3.07487027 384.05883358 -3.08764648 381.91638184 C-3.09094971 380.60141724 -3.09425293 379.28645264 -3.09765625 377.93164062 C-3.10289307 376.78328735 -3.10812988 375.63493408 -3.11352539 374.45178223 C-3.01048037 371.31865973 -2.64924776 368.30325828 -2.23242378 365.19999123 C-1.77568482 360.87676023 -1.81993165 356.53648271 -1.79467773 352.19311523 C-1.78478097 351.11857118 -1.7748842 350.04402712 -1.76468754 348.93692112 C-1.73279306 345.3108344 -1.70801041 341.68473807 -1.68359375 338.05859375 C-1.66810669 336.08560529 -1.65261382 334.11261685 -1.63677824 332.13963115 C-1.57267026 324.12135732 -1.51886816 316.10303182 -1.46757126 308.08466721 C-1.44277425 304.21782543 -1.4164269 300.3509961 -1.38955754 296.48416823 C-0.71068082 198.65812402 -0.91095988 100.82769231 -1 3 C-17.17 3.33 -33.34 3.66 -50 4 C-50.33 3.34 -50.66 2.68 -51 2 Z " fill="#114BA2" transform="translate(242,26)"/>
<path d="M0 0 C1.79893615 0.09380896 3.59450981 0.25204897 5.38671875 0.43359375 C14.19710851 1.1839523 22.97630086 1.10914992 31.8125 1.0625 C33.48762886 1.05747056 35.16275919 1.05291023 36.83789062 1.04882812 C40.89196439 1.03794708 44.94596531 1.02076371 49 1 C50.0126462 5.17982483 50.1148408 9.08814113 50.09765625 13.38208008 C50.09619598 14.10813446 50.09473572 14.83418884 50.0932312 15.58224487 C50.0894356 17.15473425 50.08333003 18.72721939 50.07516479 20.29969215 C50.06232395 22.8038633 50.05586414 25.30798094 50.05102539 27.81217957 C50.03769573 34.04099267 50.01368539 40.26975581 49.98962402 46.49853516 C49.96969763 51.75190145 49.9541296 57.00524748 49.94406128 62.2586422 C49.93768776 64.69767798 49.92517388 67.13662879 49.91235352 69.57563782 C49.88474879 78.08611295 50.17934494 86.47762947 50.77069092 94.96965027 C51.23133385 102.27745919 51.1434505 109.60281408 51.1328125 116.921875 C51.13348925 118.599874 51.13446233 120.27787291 51.13571167 121.95587158 C51.13717285 125.44845527 51.13508669 128.94101311 51.13037109 132.43359375 C51.12469171 136.84870328 51.12804232 141.26375229 51.13381481 145.67885971 C51.1687781 177.19964959 51.1687781 177.19964959 50.3901825 189.77844238 C49.63412416 202.24989178 49.62611265 214.75999335 49.4375 227.25 C49.39456984 229.95313626 49.35061678 232.65625558 49.30664062 235.359375 C49.20089876 241.90619788 49.09891621 248.45307061 49 255 C29.46067157 256.17737495 29.46067157 256.17737495 20.1875 256.125 C19.31585205 256.12306641 18.4442041 256.12113281 17.54614258 256.11914062 C10.66153033 256.07329839 3.85081203 255.71177268 -3 255 C-4.16629127 251.50112618 -4.1385823 248.36776958 -4.12698364 244.72891235 C-4.12932363 243.60888071 -4.12932363 243.60888071 -4.13171089 242.46622217 C-4.13571032 239.95483788 -4.13253473 237.44351369 -4.12939453 234.93212891 C-4.13074952 233.13280197 -4.13253001 231.33347531 -4.13470459 229.53414917 C-4.13928098 224.6264963 -4.1374849 219.71886437 -4.1343255 214.81121111 C-4.13178672 209.63523841 -4.13414517 204.45926745 -4.13571167 199.28329468 C-4.13753576 190.54514244 -4.13512793 181.80699862 -4.13037109 173.06884766 C-4.12499944 163.0886912 -4.12663742 153.10855539 -4.1321975 143.12839949 C-4.1368086 134.49500884 -4.13733891 125.86162424 -4.13475883 117.22823274 C-4.13322983 112.10327914 -4.13290434 106.97833504 -4.13629532 101.85338211 C-4.14779606 81.42333102 -4.06665091 60.99681817 -3.67265296 40.57004619 C-3.63607111 38.65067771 -3.60201892 36.73125891 -3.57081437 34.81179547 C-3.03653741 3.03653741 -3.03653741 3.03653741 0 0 Z M2 3 C-1.54371264 9.38999221 -1.14734422 16.9925689 -1.31201172 24.14770508 C-1.33250202 24.94229567 -1.35299232 25.73688625 -1.37410355 26.55555534 C-1.44057702 29.27261011 -1.49864106 31.98974194 -1.5546875 34.70703125 C-1.57562344 35.68663126 -1.59655937 36.66623127 -1.61812973 37.67551613 C-2.32017766 71.80292032 -2.15011545 105.94585706 -2.12856936 140.07861912 C-2.12421741 147.78297301 -2.12733865 155.48731058 -2.1321975 163.19166344 C-2.13676114 170.73851077 -2.13736495 178.28535114 -2.13475883 185.83219939 C-2.13322064 190.29115388 -2.13293423 194.7500974 -2.13629532 199.20905113 C-2.17487578 225.12019443 -2.17487578 225.12019443 -1 251 C0.65 250.67 2.3 250.34 4 250 C4.66 250.99 5.32 251.98 6 253 C13.50780869 255.79684457 21.13533281 255.24188031 29 255 C29.71510742 254.98066406 30.43021484 254.96132813 31.16699219 254.94140625 C33.23777865 254.87707848 35.30567518 254.78788147 37.375 254.6875 C39.21191406 254.60048828 39.21191406 254.60048828 41.0859375 254.51171875 C42.04757812 254.34285156 43.00921875 254.17398438 44 254 C46.29013653 250.5647952 46.17842973 249.014669 46 245 C46.66 245 47.32 245 48 245 C48 165.47 48 85.94 48 4 C39.09 4 30.18 4 21 4 C14.6524548 3.71631083 8.33431342 3.43206036 2 3 Z " fill="#0B1880" transform="translate(395,151)"/>
<path d="M0 0 C0.33 0 0.66 0 1 0 C1 49.17 1 98.34 1 149 C3.64 149 6.28 149 9 149 C9 148.01 9 147.02 9 146 C12.14581423 145.97111486 15.29159469 145.95324077 18.4375 145.9375 C19.33533203 145.92912109 20.23316406 145.92074219 21.15820312 145.91210938 C22.43920898 145.90727539 22.43920898 145.90727539 23.74609375 145.90234375 C24.53685303 145.89710693 25.3276123 145.89187012 26.14233398 145.88647461 C28 146 28 146 29 147 C30.34015221 147.15582303 31.68758903 147.25044142 33.03515625 147.31640625 C33.84404297 147.35830078 34.65292969 147.40019531 35.48632812 147.44335938 C36.33646484 147.48267578 37.18660156 147.52199219 38.0625 147.5625 C39.34350586 147.62727539 39.34350586 147.62727539 40.65039062 147.69335938 C42.76672037 147.79976702 44.88333813 147.90041731 47 148 C47 147.01 47 146.02 47 145 C47.66 144.67 48.32 144.34 49 144 C49.33 127.83 49.66 111.66 50 95 C49.01 94.505 49.01 94.505 48 94 C48.16298584 93.44655411 48.32597168 92.89310822 48.49389648 92.32289124 C49.05396182 89.75232845 49.11288748 87.46451015 49.09765625 84.83374023 C49.09435303 83.80002792 49.0910498 82.76631561 49.08764648 81.70127869 C49.07934814 80.58169266 49.0710498 79.46210663 49.0625 78.30859375 C49.05871338 77.13531021 49.05492676 75.96202667 49.05102539 74.75318909 C49.03481587 69.74972084 49.00726506 64.74633555 48.97949219 59.74291992 C48.89019967 42.13466968 49.1971603 24.59107729 50 7 C49.34 7 48.68 7 48 7 C48 5.68 48 4.36 48 3 C33.48 2.34 18.96 1.68 4 1 C4 0.67 4 0.34 4 0 C19.84 0 35.68 0 52 0 C52.67429143 9.44008006 53.14128762 18.64250575 53.11352539 28.07373047 C53.11324234 29.41567991 53.11340355 30.75762951 53.1139679 32.09957886 C53.11425128 35.69369054 53.10842979 39.2877679 53.10139394 42.8818717 C53.09508299 46.65611942 53.09455054 50.43036818 53.09336853 54.20462036 C53.09027781 61.32985422 53.08209529 68.45507247 53.07201904 75.5802995 C53.06078721 83.70138646 53.05532975 91.82247422 53.05032361 99.94356704 C53.03991044 116.62905378 53.02235538 133.31452489 53 150 C48.66818359 150.16529513 44.33629656 150.32866437 40.00439453 150.49169922 C38.78424149 150.53828171 37.56408844 150.5848642 36.30696106 150.63285828 C28.15914393 150.93828742 20.02918584 151.15779163 11.875 151.125 C10.8128125 151.12886719 9.750625 151.13273438 8.65625 151.13671875 C1.1270411 151.1270411 1.1270411 151.1270411 0 150 C-0.38749398 145.86143872 -0.42893496 141.69268818 -0.5546875 137.5390625 C-0.5860914 136.53768187 -0.5860914 136.53768187 -0.61812973 135.51607132 C-1.22446557 115.66507203 -1.15126049 95.8029436 -1.13037109 75.94482422 C-1.1246393 70.44700666 -1.12799189 64.94923759 -1.13394356 59.45142174 C-1.13759267 55.1339991 -1.13639143 50.81658759 -1.13381577 46.49916458 C-1.13316033 44.47344583 -1.13392496 42.44772599 -1.13629532 40.42200851 C-1.14865631 26.91841524 -0.75831135 13.482592 0 0 Z " fill="#0C3899" transform="translate(291,256)"/>
<path d="M0 0 C0.33 0.66 0.66 1.32 1 2 C17.17 1.67 33.34 1.34 50 1 C50 71.95 50 142.9 50 216 C49.67 216 49.34 216 49 216 C48.82043233 202.06264712 48.65526372 188.12514466 48.5 174.1875 C48.48812275 173.12197151 48.4762455 172.05644302 48.46400833 170.95862579 C48.03525022 132.09666367 47.91154966 93.23887475 47.9375 54.375 C47.93878403 52.43811121 47.93878403 52.43811121 47.94009399 50.46209335 C47.95137159 34.64137379 47.97438172 18.82070981 48 3 C33.15 3.33 18.3 3.66 3 4 C2.35205584 8.53560911 1.87369165 12.34918176 1.8613348 16.82765865 C1.85586036 17.94931579 1.85038591 19.07097292 1.84474558 20.22661966 C1.84376747 21.44355133 1.84278936 22.660483 1.84178162 23.91429138 C1.83684364 25.21884201 1.83190566 26.52339263 1.82681805 27.86747509 C1.81328463 31.47735699 1.80583254 35.08722951 1.79939139 38.69713008 C1.79136629 42.59412344 1.77767581 46.49109741 1.76467896 50.38807678 C1.74294608 57.13618295 1.72478997 63.8842911 1.70907402 70.63241386 C1.68634631 80.38902571 1.65820752 90.14561606 1.62875474 99.90220965 C1.58111438 115.7322416 1.53784057 131.56228234 1.49731445 147.39233398 C1.45794143 162.76831751 1.41651087 178.14429322 1.37231445 193.52026367 C1.36959018 194.4682892 1.36686591 195.41631473 1.36405908 196.39306831 C1.35037931 201.14910862 1.33665909 205.90514882 1.32291877 210.66118896 C1.20900986 250.10744305 1.10218817 289.55371391 1 329 C0.67 329 0.34 329 0 329 C0 220.43 0 111.86 0 0 Z " fill="#1C77E4" transform="translate(191,28)"/>
<path d="M0 0 C0 16.5 0 33 0 50 C-0.33 50 -0.66 50 -1 50 C-1 34.49 -1 18.98 -1 3 C-2.65 3.33 -4.3 3.66 -6 4 C-20.52 4 -35.04 4 -50 4 C-50 113.89 -50 223.78 -50 337 C-50.66 337 -51.32 337 -52 337 C-52.495 338.98 -52.495 338.98 -53 341 C-53.02289669 299.27458534 -53.04051366 257.5491714 -53.05106533 215.8237517 C-53.05231601 210.89592886 -53.05361034 205.96810603 -53.05493164 201.0402832 C-53.05519395 200.05925636 -53.05545626 199.07822951 -53.05572652 198.06747458 C-53.06007596 182.18988164 -53.06795953 166.31229232 -53.0771528 150.43470152 C-53.0865095 134.13873981 -53.09205989 117.84277999 -53.09408849 101.54681569 C-53.09545953 91.49409969 -53.09978743 81.44139394 -53.10791647 71.38868109 C-53.11320879 64.49200421 -53.11479863 57.59533261 -53.11350138 50.69865384 C-53.11286189 46.72168579 -53.11383144 42.74473563 -53.11920547 38.76777077 C-53.12409684 35.12123573 -53.12430123 31.47473051 -53.12089889 27.82819406 C-53.120281 25.89574393 -53.12457126 23.96329412 -53.12908131 22.03084916 C-53.09509575 2.09509575 -53.09509575 2.09509575 -51 0 C-49.6208341 -0.12721348 -48.23545775 -0.18820554 -46.85083008 -0.22119141 C-45.52859184 -0.25595078 -45.52859184 -0.25595078 -44.17964172 -0.29141235 C-43.21930527 -0.3112619 -42.25896881 -0.33111145 -41.26953125 -0.3515625 C-40.28635422 -0.37471527 -39.30317719 -0.39786804 -38.29020691 -0.42172241 C-36.20288431 -0.46945781 -34.11550298 -0.51467986 -32.02807617 -0.55761719 C-28.84335596 -0.62435341 -25.65904612 -0.7022501 -22.47460938 -0.78125 C-20.44793162 -0.82620022 -18.42123914 -0.87049205 -16.39453125 -0.9140625 C-14.9692083 -0.94990952 -14.9692083 -0.94990952 -13.51509094 -0.98648071 C-12.61783798 -1.0033493 -11.72058502 -1.0202179 -10.79614258 -1.03759766 C-10.01306229 -1.05456696 -9.22998199 -1.07153625 -8.423172 -1.08901978 C-5.59398744 -0.98508437 -2.79257298 -0.46542883 0 0 Z " fill="#114B99" transform="translate(242,26)"/>
<path d="M0 0 C0 33.99 0 67.98 0 103 C-11.22 103 -22.44 103 -34 103 C-34 102.67 -34 102.34 -34 102 C-18.655 101.505 -18.655 101.505 -3 101 C-3 69.32 -3 37.64 -3 5 C-18.18 5 -33.36 5 -49 5 C-49.33 37.01 -49.66 69.02 -50 102 C-47.03 102 -44.06 102 -41 102 C-41 102.33 -41 102.66 -41 103 C-44.63 103 -48.26 103 -52 103 C-52.0231209 89.84850976 -52.04091379 76.69702431 -52.05181217 63.54551792 C-52.05704156 57.43943631 -52.0641402 51.33336856 -52.07543945 45.22729492 C-52.08626637 39.33994853 -52.09227642 33.45261551 -52.09487724 27.56525993 C-52.09673185 25.31367723 -52.10035313 23.06209531 -52.10573006 20.81051826 C-52.11293789 17.66866573 -52.11399105 14.52686917 -52.11352539 11.38500977 C-52.11712067 10.44418045 -52.12071594 9.50335114 -52.12442017 8.53401184 C-52.11405216 2.11405216 -52.11405216 2.11405216 -51 1 C-34.03439189 -0.13104054 -17.00326766 0 0 0 Z " fill="#245CA9" transform="translate(142,303)"/>
<path d="M0 0 C0.66 0 1.32 0 2 0 C3.04216932 8.94693505 3.13620504 17.83881849 3.09375 26.83203125 C3.08995082 28.36871804 3.08633361 29.90540528 3.08288574 31.4420929 C3.03300298 48.06818986 2.79429109 64.69222085 2.53643799 81.31616211 C2.47418285 85.36764718 2.41498608 89.41917708 2.35546875 93.47070312 C2.23983292 101.31384673 2.12104197 109.15693776 2 117 C7.15964963 116.88133035 12.31912316 116.7570551 17.47851562 116.62768555 C19.23205946 116.58449402 20.98564108 116.54280845 22.73925781 116.50268555 C25.26639165 116.44459876 27.79333804 116.38101701 30.3203125 116.31640625 C31.09867462 116.29969376 31.87703674 116.28298126 32.6789856 116.26576233 C36.87551289 116.1527014 40.86538737 115.80794586 45 115 C48.09778499 106.73924004 48.17204227 98.43156645 48.31640625 89.71875 C48.33718735 88.66465942 48.35796844 87.61056885 48.37937927 86.52453613 C48.44435675 83.18308543 48.50351711 79.84156135 48.5625 76.5 C48.60573457 74.22395098 48.64935038 71.94790917 48.69335938 69.671875 C48.79998446 64.11465913 48.90184355 58.55737155 49 53 C49.99 53.495 49.99 53.495 51 54 C52.21357405 59.7406953 52.14550624 65.47711028 52.1328125 71.32421875 C52.13376923 72.3068721 52.13472595 73.28952545 52.13571167 74.30195618 C52.13638987 76.37537704 52.13456079 78.44880006 52.13037109 80.5222168 C52.12504659 83.66004335 52.13031352 86.7977249 52.13671875 89.93554688 C52.13605735 91.96093781 52.1347749 93.98632866 52.1328125 96.01171875 C52.13483673 96.93401779 52.13686096 97.85631683 52.13894653 98.80656433 C52.11496664 105.63389929 51.57174269 112.13908768 51 119 C34.17 119 17.34 119 0 119 C-0.80100075 79.25033793 -1.15731485 39.73345065 0 0 Z " fill="#1D68C4" transform="translate(190,363)"/>
<path d="M0 0 C-0.00222061 0.97924438 -0.00444122 1.95848877 -0.00672913 2.96740723 C-0.02713187 12.2630242 -0.04205383 21.55863653 -0.05181217 30.85427094 C-0.0569979 35.63153528 -0.06401579 40.40878133 -0.07543945 45.18603516 C-0.08642336 49.80909908 -0.09230916 54.43214558 -0.09487724 59.05522156 C-0.09670389 60.80596694 -0.10026974 62.55671152 -0.10573006 64.30744934 C-0.13448628 73.92297322 0.09915156 83.42125664 0.7696991 93.01550293 C1.18881929 100.26681274 1.16458465 107.51982718 1.16796875 114.78125 C1.17119803 116.4496666 1.17456322 118.11808295 1.17805481 119.78649902 C1.18399031 123.26229506 1.18590063 126.73806645 1.18530273 130.21386719 C1.1852217 133.72368549 1.19213689 137.23337264 1.20581055 140.74316406 C1.28087547 160.26889986 1.16862337 179.56716871 -1 199 C-1.33 199 -1.66 199 -2 199 C-2.15396843 174.34800708 -2.30199981 149.6959847 -2.4429636 125.04391384 C-2.50855393 113.597535 -2.5760869 102.15117378 -2.64819336 90.70483398 C-2.71103643 80.72820339 -2.77023436 70.75155896 -2.82505554 60.77488095 C-2.85421001 55.49234507 -2.88518949 50.20983412 -2.92053413 44.92733574 C-2.95375093 39.95425111 -2.98208991 34.98116243 -3.00670624 30.00802803 C-3.01659176 28.1839301 -3.02825139 26.35984078 -3.04183006 24.5357666 C-3.06012568 22.04214874 -3.07199163 19.54857827 -3.08229065 17.05491638 C-3.09249633 15.97658095 -3.09249633 15.97658095 -3.10290819 14.87646097 C-3.1126427 10.46836641 -2.71583396 6.33467782 -2 2 C-3.16402344 2.10828125 -3.16402344 2.10828125 -4.3515625 2.21875 C-18.97305169 3.4750116 -33.38229907 2.87269856 -48 2 C-48.33 2.99 -48.66 3.98 -49 5 C-49.33 5 -49.66 5 -50 5 C-50 3.35 -50 1.7 -50 0 C-43.68304662 -0.16857871 -37.36591494 -0.32840218 -31.04858398 -0.48217773 C-28.90009562 -0.53550498 -26.75165579 -0.59082684 -24.60327148 -0.64819336 C-21.51296451 -0.73036337 -18.42255328 -0.80532874 -15.33203125 -0.87890625 C-14.37351761 -0.90594131 -13.41500397 -0.93297638 -12.42744446 -0.96083069 C-11.07661018 -0.99097511 -11.07661018 -0.99097511 -9.69848633 -1.02172852 C-8.51601067 -1.05170677 -8.51601067 -1.05170677 -7.30964661 -1.08229065 C-4.78401902 -0.99230479 -2.46160114 -0.55633088 0 0 Z " fill="#0B1F88" transform="translate(445,153)"/>
<path d="M0 0 C0.97540706 7.81876013 1.14550867 15.53717897 1.1328125 23.41015625 C1.13383603 24.76872789 1.1351799 26.12729932 1.1368103 27.48587036 C1.13954222 31.22378949 1.13496567 34.96166771 1.12857056 38.69958115 C1.12498603 41.07174554 1.12337485 43.44390378 1.12231445 45.81607056 C1.09450466 96.54529364 0.50875652 147.2738259 0 198 C-0.33 198 -0.66 198 -1 198 C-1 134.64 -1 71.28 -1 6 C-21.295 5.505 -21.295 5.505 -42 5 C-42 3.68 -42 2.36 -42 1 C-37.46514285 0.85578057 -32.93023182 0.71343984 -28.39526367 0.57275391 C-26.85618543 0.52475335 -25.31712243 0.47626135 -23.77807617 0.42724609 C-15.85091889 0.17510023 -7.9323857 -0.07219464 0 0 Z " fill="#0D57A3" transform="translate(42,203)"/>
<path d="M0 0 C0.99 0 1.98 0 3 0 C3 65.01 3 130.02 3 197 C-10.53 197 -24.06 197 -38 197 C-37.505 196.01 -37.505 196.01 -37 195 C-25.12 194.67 -13.24 194.34 -1 194 C0.82546435 187.77828994 0.82546435 187.77828994 1.24723816 181.74336243 C1.25143265 180.75506439 1.25562714 179.76676636 1.25994873 178.7485199 C1.25432922 177.6859346 1.24870972 176.6233493 1.24291992 175.52856445 C1.24481827 174.39279968 1.24671661 173.25703491 1.24867249 172.08685303 C1.2523669 168.34559145 1.24169616 164.60452547 1.23046875 160.86328125 C1.22927625 158.25969974 1.22882394 155.65611779 1.2290802 153.05253601 C1.22814572 147.60295189 1.21948913 142.15342368 1.20581055 136.70385742 C1.19006368 130.40708396 1.18481339 124.11037159 1.1855461 117.81357986 C1.18615668 111.74645487 1.18094118 105.67935472 1.17275429 99.61223412 C1.1695691 97.03378609 1.16760056 94.45533626 1.16686058 91.87688637 C1.16469689 88.27897697 1.15595261 84.6811448 1.14526367 81.08325195 C1.14571686 80.01459396 1.14617004 78.94593597 1.14663696 77.84489441 C1.14237198 76.86505585 1.13810699 75.88521729 1.13371277 74.87568665 C1.13203692 74.02566731 1.13036108 73.17564798 1.12863445 72.29987049 C1.00365257 70.06530473 0.58241464 68.15320161 0 66 C-0.10776808 64.20899617 -0.16565316 62.41469081 -0.18945312 60.62060547 C-0.20617065 59.54624237 -0.22288818 58.47187927 -0.2401123 57.36495972 C-0.25368774 56.21069489 -0.26726318 55.05643005 -0.28125 53.8671875 C-0.29965942 52.67900421 -0.31806885 51.49082092 -0.33703613 50.26663208 C-0.41576198 45.17866051 -0.48360047 40.09055741 -0.55224609 35.00244141 C-0.60387151 31.29062145 -0.66114857 27.57891873 -0.71875 23.8671875 C-0.73232544 22.70887421 -0.74590088 21.55056091 -0.7598877 20.35714722 C-0.77660522 19.28908844 -0.79332275 18.22102966 -0.81054688 17.12060547 C-0.82307495 16.17780731 -0.83560303 15.23500916 -0.84851074 14.26364136 C-0.85578573 11.96635229 -0.85578573 11.96635229 -2 10 C-2.25797575 6.04437178 -2.09440189 3.40340307 0 0 Z " fill="#1378E3" transform="translate(38,209)"/>
<path d="M0 0 C0.33 0 0.66 0 1 0 C1.79995162 7.07649509 2.07369567 13.95754383 1.5625 21.0625 C1.14788863 26.83601997 0.91165448 32.5671054 0.93359375 38.35546875 C0.93520508 39.1895929 0.93681641 40.02371704 0.93847656 40.88311768 C0.99735867 56.45777751 1.29547981 72.03224037 1.53643799 87.60491943 C2.04361456 120.40603127 2.04361456 120.40603127 2.09375 134.796875 C2.1002356 135.74556458 2.10672119 136.69425415 2.11340332 137.67169189 C2.1167778 142.55827639 1.75307448 147.15990468 1 152 C0.91458559 153.95566756 0.86948796 155.91356318 0.8671875 157.87109375 C0.86589844 158.94037109 0.86460937 160.00964844 0.86328125 161.11132812 C0.86714844 162.20896484 0.87101562 163.30660156 0.875 164.4375 C0.87113281 165.53126953 0.86726563 166.62503906 0.86328125 167.75195312 C0.87082504 174.47554171 0.87082504 174.47554171 1.50390625 181.16015625 C2.10375982 185.80311734 2.10916756 190.32606433 2.0625 195 C2.05798828 195.87011719 2.05347656 196.74023438 2.04882812 197.63671875 C2.0371736 199.75784293 2.01924357 201.8789311 2 204 C1.34 204.33 0.68 204.66 0 205 C-0.75392285 193.26502764 -1.14629243 181.59400728 -1.12939453 169.83618164 C-1.13075478 168.20920269 -1.13253817 166.58222405 -1.13470459 164.95524597 C-1.13920522 160.59566319 -1.13752009 156.23610447 -1.1343255 151.87652135 C-1.13176287 147.27570746 -1.13415021 142.6748954 -1.13571167 138.07408142 C-1.13752229 130.35219967 -1.13515649 122.63032755 -1.13037109 114.90844727 C-1.12493256 106.03115602 -1.12669267 97.15388777 -1.1321975 88.27659708 C-1.13676268 80.60211336 -1.13736257 72.92763648 -1.13475883 65.25315183 C-1.13321442 60.69263454 -1.13295104 56.13212798 -1.13629532 51.5716114 C-1.15939904 15.2791936 -1.15939904 15.2791936 0 0 Z " fill="#0D1CAD" transform="translate(394,195)"/>
<path d="M0 0 C15.84 0 31.68 0 48 0 C48 49.17 48 98.34 48 149 C47.67 149 47.34 149 47 149 C46.67 102.14 46.34 55.28 46 7 C45.34 7 44.68 7 44 7 C44 5.68 44 4.36 44 3 C29.48 2.34 14.96 1.68 0 1 C0 0.67 0 0.34 0 0 Z " fill="#1947A9" transform="translate(295,256)"/>
<path d="M0 0 C0.33 0 0.66 0 1 0 C1 33.66 1 67.32 1 102 C-12.53 102 -26.06 102 -40 102 C-39.505 101.01 -39.505 101.01 -39 100 C-27.12 99.67 -15.24 99.34 -3 99 C-1.23634553 93.22675015 -1.23634553 93.22675015 -0.7215271 87.6655426 C-0.71036362 86.88181778 -0.69920013 86.09809296 -0.68769836 85.2906189 C-0.68553818 84.45551788 -0.68337799 83.62041687 -0.68115234 82.76000977 C-0.66608391 81.41248375 -0.66608391 81.41248375 -0.65071106 80.03773499 C-0.61999208 77.08896483 -0.60287538 74.14028501 -0.5859375 71.19140625 C-0.56721677 69.13874033 -0.54764269 67.08608202 -0.5272522 65.03343201 C-0.47602064 59.64621483 -0.43634688 54.25897272 -0.39910889 48.87164307 C-0.35901293 43.36814249 -0.30794611 37.8647448 -0.2578125 32.36132812 C-0.16115949 21.57429112 -0.07672075 10.7871959 0 0 Z " fill="#1E71CB" transform="translate(40,304)"/>
<path d="M0 0 C0.33 0 0.66 0 1 0 C1 16.17 1 32.34 1 49 C10.04972556 48.3604636 10.04972556 48.3604636 19 47 C20.91143363 46.92168326 22.82527121 46.89211375 24.73828125 46.90234375 C25.80498047 46.90556641 26.87167969 46.90878906 27.97070312 46.91210938 C29.62489258 46.92467773 29.62489258 46.92467773 31.3125 46.9375 C32.43462891 46.94201172 33.55675781 46.94652344 34.71289062 46.95117188 C37.4753151 46.96292687 40.23762998 46.97935923 43 47 C43.495 46.01 43.495 46.01 44 45 C44.66 45 45.32 45 46 45 C45.91621094 44.41992188 45.83242187 43.83984375 45.74609375 43.2421875 C45.59333984 42.07042969 45.59333984 42.07042969 45.4375 40.875 C45.28087891 39.72644531 45.28087891 39.72644531 45.12109375 38.5546875 C44.97909734 35.55902125 45.50180224 32.96150892 46 30 C46.2615475 26.54498987 46.41189651 23.08641143 46.5625 19.625 C46.62727539 18.23474609 46.62727539 18.23474609 46.69335938 16.81640625 C46.79876186 14.54439706 46.90088606 12.27229075 47 10 C47.33 10 47.66 10 48 10 C48 23.2 48 36.4 48 50 C41.750625 50.185625 35.50125 50.37125 29.0625 50.5625 C27.10836182 50.62381104 25.15422363 50.68512207 23.14086914 50.74829102 C21.56397858 50.79232411 19.98707495 50.83589252 18.41015625 50.87890625 C17.61411987 50.90561401 16.8180835 50.93232178 15.9979248 50.95983887 C15.20720581 50.98026245 14.41648682 51.00068604 13.60180664 51.02172852 C12.59253868 51.05170677 12.59253868 51.05170677 11.56288147 51.08229065 C7.69373462 50.95805759 3.84746389 50.42749599 0 50 C0 33.5 0 17 0 0 Z " fill="#4E8EE0" transform="translate(92,355)"/>
<path d="M0 0 C0.66 0 1.32 0 2 0 C2 19.47 2 38.94 2 59 C1.34 59 0.68 59 0 59 C0.061875 60.3921875 0.061875 60.3921875 0.125 61.8125 C0 65 0 65 -2 68 C-2.66 67.67 -3.32 67.34 -4 67 C-4 66.34 -4 65.68 -4 65 C-3.34 65 -2.68 65 -2 65 C-2.00523682 64.25951416 -2.01047363 63.51902832 -2.01586914 62.75610352 C-2.03682557 59.35824452 -2.04971908 55.96039919 -2.0625 52.5625 C-2.07506836 50.81549805 -2.07506836 50.81549805 -2.08789062 49.03320312 C-2.10229032 43.92130963 -2.07443573 38.91617626 -1.43359375 33.83984375 C-0.73719827 30.08727314 -0.73719827 30.08727314 -2 27 C-1.94922334 25.26917061 -1.82650609 23.53997127 -1.66015625 21.81640625 C-1.56669922 20.80642578 -1.47324219 19.79644531 -1.37695312 18.75585938 C-1.27318359 17.70205078 -1.16941406 16.64824219 -1.0625 15.5625 C-0.86440723 13.48060887 -0.6677358 11.39858189 -0.47265625 9.31640625 C-0.38250244 8.39287354 -0.29234863 7.46934082 -0.19946289 6.51782227 C-0.02780529 4.35098649 0 2.17362453 0 0 Z " fill="#0E16A7" transform="translate(441,337)"/>
<path d="M0 0 C0.99 0.495 0.99 0.495 2 1 C3.21679623 6.75160214 3.14548792 12.50106219 3.1328125 18.359375 C3.13376923 19.34440002 3.13472595 20.32942505 3.13571167 21.34429932 C3.13638981 23.42191634 3.13456113 25.49953553 3.13037109 27.57714844 C3.12504069 30.72596101 3.13031673 33.87462946 3.13671875 37.0234375 C3.13605746 39.05208364 3.13477524 41.0807297 3.1328125 43.109375 C3.13483673 44.03683533 3.13686096 44.96429565 3.13894653 45.91986084 C3.11644714 52.3262223 2.67396967 58.63000189 2 65 C1.34 65 0.68 65 0 65 C0 43.55 0 22.1 0 0 Z " fill="#4072D9" transform="translate(239,416)"/>
<path d="M0 0 C0.66 0 1.32 0 2 0 C2 27.39 2 54.78 2 83 C1.01 83.495 1.01 83.495 0 84 C-0.76553351 77.79371045 -1.0832116 71.62581669 -1.0625 65.375 C-1.06117065 64.61410065 -1.05984131 63.85320129 -1.05847168 63.06924438 C-1.01121815 50.83641236 -0.73611199 38.60528396 -0.5 26.375 C-0.45166901 23.80729456 -0.40349083 21.23958624 -0.35546875 18.671875 C-0.23873844 12.4478824 -0.12013105 6.22392784 0 0 Z " fill="#0C1EB8" transform="translate(441,155)"/>
<path d="M0 0 C0.33 0 0.66 0 1 0 C0.67 19.14 0.34 38.28 0 58 C-21.04016754 59.1688982 -21.04016754 59.1688982 -28.8125 59.125 C-29.68414795 59.12306641 -30.5557959 59.12113281 -31.45385742 59.11914062 C-38.33846967 59.07329839 -45.14918797 58.71177268 -52 58 C-52 57.67 -52 57.34 -52 57 C-51.10917725 57.00523682 -50.21835449 57.01047363 -49.30053711 57.01586914 C-45.91771771 57.03316081 -42.5349469 57.04556917 -39.15209961 57.05493164 C-37.70254768 57.05988546 -36.25300054 57.06665038 -34.8034668 57.07543945 C-24.81885063 57.13435597 -14.95521938 56.80267972 -5 56 C-4.34 53.36 -3.68 50.72 -3 48 C-2.34 48 -1.68 48 -1 48 C-1.00523682 46.68805664 -1.01047363 45.37611328 -1.01586914 44.02441406 C-1.03397031 39.15658246 -1.04545078 34.28875384 -1.05493164 29.42089844 C-1.05996013 27.31412251 -1.06678376 25.20735008 -1.07543945 23.10058594 C-1.08756989 20.07225686 -1.09324317 17.04397394 -1.09765625 14.015625 C-1.10281754 13.07382385 -1.10797882 12.13202271 -1.11329651 11.16168213 C-1.11337204 10.28107117 -1.11344757 9.40046021 -1.11352539 8.49316406 C-1.115746 7.72039124 -1.11796661 6.94761841 -1.12025452 6.15142822 C-0.99903582 3.98275023 -0.59739699 2.08363076 0 0 Z " fill="#0B1577" transform="translate(444,348)"/>
<path d="M0 0 C1.66601426 0.00503229 3.33203001 0.0095921 4.99804688 0.01367188 C9.01956926 0.02452381 13.04101733 0.04168984 17.0625 0.0625 C17.0625 3.3625 17.0625 6.6625 17.0625 10.0625 C16.7325 10.0625 16.4025 10.0625 16.0625 10.0625 C16.0625 7.7525 16.0625 5.4425 16.0625 3.0625 C14.21688477 3.07035522 14.21688477 3.07035522 12.33398438 3.07836914 C7.74186946 3.09655444 3.1497577 3.10798124 -1.44238281 3.11743164 C-3.42481014 3.12244103 -5.40723382 3.1292504 -7.38964844 3.13793945 C-10.24935818 3.15015429 -13.1090188 3.15576239 -15.96875 3.16015625 C-16.84615845 3.16531754 -17.72356689 3.17047882 -18.62756348 3.17579651 C-23.82375006 3.17626359 -28.79467573 2.81466408 -33.9375 2.0625 C-33.9375 1.7325 -33.9375 1.4025 -33.9375 1.0625 C-22.60462808 0.12417671 -11.36597825 -0.06064601 0 0 Z " fill="#082767" transform="translate(124.9375,302.9375)"/>
<path d="M0 0 C0.33 0 0.66 0 1 0 C1 15.51 1 31.02 1 47 C-10.22 47 -21.44 47 -33 47 C-33 46.67 -33 46.34 -33 46 C-17.655 45.505 -17.655 45.505 -2 45 C-2.0309375 41.7515625 -2.0309375 41.7515625 -2.0625 38.4375 C-2.08716527 31.24217843 -1.86409509 24.06349333 -1.5625 16.875 C-1.52326416 15.89200928 -1.48402832 14.90901855 -1.44360352 13.89624023 C-1.23291247 9.1894589 -0.92808773 4.6326396 0 0 Z " fill="#205399" transform="translate(141,359)"/>
<path d="M0 0 C0.33 0 0.66 0 1 0 C1 37.62 1 75.24 1 114 C1.99 114 2.98 114 4 114 C4 115.32 4 116.64 4 118 C2.68 118 1.36 118 0 118 C0 79.06 0 40.12 0 0 Z " fill="#124CC2" transform="translate(292,287)"/>
<path d="M0 0 C-0.66 6.27 -1.32 12.54 -2 19 C-2.33 19 -2.66 19 -3 19 C-3.10477512 13.21408489 -2.99250545 7.70690634 -2 2 C-3.16402344 2.10828125 -3.16402344 2.10828125 -4.3515625 2.21875 C-18.97305169 3.4750116 -33.38229907 2.87269856 -48 2 C-48.33 2.99 -48.66 3.98 -49 5 C-49.33 5 -49.66 5 -50 5 C-50 3.35 -50 1.7 -50 0 C-43.68304662 -0.16857871 -37.36591494 -0.32840218 -31.04858398 -0.48217773 C-28.90009562 -0.53550498 -26.75165579 -0.59082684 -24.60327148 -0.64819336 C-21.51296451 -0.73036337 -18.42255328 -0.80532874 -15.33203125 -0.87890625 C-14.37351761 -0.90594131 -13.41500397 -0.93297638 -12.42744446 -0.96083069 C-11.07661018 -0.99097511 -11.07661018 -0.99097511 -9.69848633 -1.02172852 C-8.51601067 -1.05170677 -8.51601067 -1.05170677 -7.30964661 -1.08229065 C-5 -1 -5 -1 0 0 Z " fill="#111A99" transform="translate(445,153)"/>
<path d="M0 0 C0 0.66 0 1.32 0 2 C-5.00221397 3.3226348 -9.98145962 3.12593478 -15.11328125 3.09765625 C-16.08283249 3.0962413 -17.05238373 3.09482635 -18.05131531 3.09336853 C-21.13840867 3.08778513 -24.22542867 3.07523564 -27.3125 3.0625 C-29.40950416 3.05748286 -31.50650946 3.05292032 -33.60351562 3.04882812 C-38.73570521 3.03782112 -43.86784018 3.02056788 -49 3 C-49 2.34 -49 1.68 -49 1 C-32.66240221 -0.06508204 -16.36790085 -0.11077817 0 0 Z " fill="#0856C4" transform="translate(241,27)"/>
<path d="M0 0 C6.37229361 0.26232863 12.74434834 0.52737856 19.11621094 0.79956055 C21.28508762 0.89136571 23.45403394 0.98154055 25.62304688 1.07006836 C28.73587358 1.19739834 31.84840497 1.33053771 34.9609375 1.46484375 C35.934935 1.50343002 36.9089325 1.5420163 37.91244507 1.58177185 C39.26361923 1.64172081 39.26361923 1.64172081 40.64208984 1.70288086 C41.43706879 1.73619003 42.23204773 1.76949921 43.05111694 1.80381775 C45 2 45 2 47 3 C47 4.32 47 5.64 47 7 C47.66 7 48.32 7 49 7 C49 9.97 49 12.94 49 16 C46.8008587 11.60171741 46.48144941 8.81449408 46 4 C45.01604248 4 44.03208496 4 43.01831055 4 C30.01220703 4 17.00610352 4 4 4 C4 3.34 4 2.68 4 2 C3.01 2.495 3.01 2.495 2 3 C1.67 9.27 1.34 15.54 1 22 C0.67 22 0.34 22 0 22 C0 14.74 0 7.48 0 0 Z " fill="#094CD1" transform="translate(292,256)"/>
<path d="M0 0 C15.51 0 31.02 0 47 0 C47 5.28 47 10.56 47 16 C46.67 16 46.34 16 46 16 C46 13.03 46 10.06 46 7 C45.34 7 44.68 7 44 7 C44 5.68 44 4.36 44 3 C29.48 2.34 14.96 1.68 0 1 C0 0.67 0 0.34 0 0 Z " fill="#1248B2" transform="translate(295,256)"/>
<path d="M0 0 C0.33 0 0.66 0 1 0 C1 3.3 1 6.6 1 10 C-12.2 10 -25.4 10 -39 10 C-38.67 9.34 -38.34 8.68 -38 8 C-26.12 7.67 -14.24 7.34 -2 7 C-1.34 4.69 -0.68 2.38 0 0 Z " fill="#2969B2" transform="translate(39,396)"/>
<path d="M0 0 C0.33 0 0.66 0 1 0 C1.33 23.1 1.66 46.2 2 70 C0.0683661 66.1367322 -0.25800829 64.74086223 -0.30297852 60.62060547 C-0.31962051 59.54624237 -0.33626251 58.47187927 -0.35340881 57.36495972 C-0.36182297 56.21069489 -0.37023712 55.05643005 -0.37890625 53.8671875 C-0.39590073 52.67900421 -0.4128952 51.49082092 -0.43040466 50.26663208 C-0.48356005 46.46947542 -0.52384972 42.67232987 -0.5625 38.875 C-0.60639157 35.07058444 -0.65305421 31.2662547 -0.70530701 27.46194458 C-0.73732384 25.09374421 -0.7641951 22.72546784 -0.78553772 20.35714722 C-0.79902756 19.28908844 -0.8125174 18.22102966 -0.82641602 17.12060547 C-0.83592789 16.17780731 -0.84543976 15.23500916 -0.85523987 14.26364136 C-0.8547177 11.96621476 -0.8547177 11.96621476 -2 10 C-2.25797575 6.04437178 -2.09440189 3.40340307 0 0 Z " fill="#1782F6" transform="translate(38,209)"/>
<path d="M0 0 C0.66 0 1.32 0 2 0 C2.02495303 4.25007753 2.0429783 8.50011481 2.05493164 12.75024414 C2.05992148 14.192309 2.06671573 15.63436891 2.07543945 17.07641602 C2.1208459 24.78215673 2.08531842 32.35149621 1 40 C0.67 40 0.34 40 0 40 C-0.06058594 39.31292969 -0.12117188 38.62585938 -0.18359375 37.91796875 C-0.26738281 37.01691406 -0.35117187 36.11585938 -0.4375 35.1875 C-0.51871094 34.29417969 -0.59992188 33.40085937 -0.68359375 32.48046875 C-0.93489767 29.87256441 -0.93489767 29.87256441 -2 27 C-1.94922334 25.26917061 -1.82650609 23.53997127 -1.66015625 21.81640625 C-1.56669922 20.80642578 -1.47324219 19.79644531 -1.37695312 18.75585938 C-1.27318359 17.70205078 -1.16941406 16.64824219 -1.0625 15.5625 C-0.86440723 13.48060887 -0.6677358 11.39858189 -0.47265625 9.31640625 C-0.38250244 8.39287354 -0.29234863 7.46934082 -0.19946289 6.51782227 C-0.02780529 4.35098649 0 2.17362453 0 0 Z " fill="#0A1EB2" transform="translate(441,337)"/>
<path d="M0 0 C0.66 0.33 1.32 0.66 2 1 C2 7.6 2 14.2 2 21 C3.32 21 4.64 21 6 21 C6.33 20.34 6.66 19.68 7 19 C7.66 19.99 8.32 20.98 9 22 C9.99 22.33 10.98 22.66 12 23 C12 23.33 12 23.66 12 24 C8.04 24 4.08 24 0 24 C-1.27491216 21.45017567 -1.02596616 19.83534576 -0.87890625 16.9921875 C-0.83056641 16.00605469 -0.78222656 15.01992188 -0.73242188 14.00390625 C-0.67634766 12.97136719 -0.62027344 11.93882812 -0.5625 10.875 C-0.51029297 9.83472656 -0.45808594 8.79445313 -0.40429688 7.72265625 C-0.27439054 5.14814884 -0.13941748 2.57400704 0 0 Z " fill="#0E148E" transform="translate(392,381)"/>
<path d="M0 0 C0.33 0 0.66 0 1 0 C1 15.18 1 30.36 1 46 C0.34 45.67 -0.32 45.34 -1 45 C-2.35243471 29.8307999 -1.44828644 15.14053176 0 0 Z " fill="#216FED" transform="translate(240,371)"/>
<path d="M0 0 C0.33 0 0.66 0 1 0 C1.1982842 10.53109421 1.31290989 20.65385845 -1 31 C-1.33 31 -1.66 31 -2 31 C-2.04947698 27.06734104 -2.08575578 23.13480286 -2.10986328 19.2019043 C-2.12485495 17.20680382 -2.15026731 15.21179054 -2.17578125 13.21679688 C-2.18222656 11.96318359 -2.18867188 10.70957031 -2.1953125 9.41796875 C-2.20578613 8.26063232 -2.21625977 7.1032959 -2.22705078 5.91088867 C-2 3 -2 3 0 0 Z " fill="#1172F0" transform="translate(238,445)"/>
<path d="M0 0 C0.9583374 0.00523682 1.9166748 0.01047363 2.90405273 0.01586914 C4.45576172 0.02070313 4.45576172 0.02070313 6.03881836 0.02563477 C7.12743164 0.03401367 8.21604492 0.04239258 9.33764648 0.05102539 C10.97636719 0.05779297 10.97636719 0.05779297 12.64819336 0.06469727 C15.35723144 0.07652713 18.06616248 0.09300996 20.77514648 0.11352539 C20.77514648 1.10352539 20.77514648 2.09352539 20.77514648 3.11352539 C17.52522202 3.17171963 14.27543213 3.20718655 11.02514648 3.23852539 C10.10475586 3.2552832 9.18436523 3.27204102 8.23608398 3.28930664 C6.9019043 3.29897461 6.9019043 3.29897461 5.54077148 3.30883789 C4.31535645 3.32454834 4.31535645 3.32454834 3.06518555 3.34057617 C0.5562713 3.09182455 -1.05880977 2.37052668 -3.22485352 1.11352539 C-2.22485352 0.11352539 -2.22485352 0.11352539 0 0 Z " fill="#2A91FD" transform="translate(15.224853515625,208.886474609375)"/>
<path d="M0 0 C0.66 0.33 1.32 0.66 2 1 C2.05429959 2.74965358 2.09292823 4.49979787 2.125 6.25 C2.14820313 7.22453125 2.17140625 8.1990625 2.1953125 9.203125 C1.99567956 12.06186877 1.39579246 13.54678902 0 16 C-0.37668344 17.65740715 -0.72057545 19.32345271 -1 21 C-1.33 21 -1.66 21 -2 21 C-2.05791844 17.87507749 -2.09356746 14.75029234 -2.125 11.625 C-2.14175781 10.73554688 -2.15851563 9.84609375 -2.17578125 8.9296875 C-2.18222656 8.07890625 -2.18867188 7.228125 -2.1953125 6.3515625 C-2.20578613 5.56604004 -2.21625977 4.78051758 -2.22705078 3.97119141 C-2 2 -2 2 0 0 Z " fill="#0A20B2" transform="translate(396,165)"/>
<path d="M0 0 C0 0.99 0 1.98 0 3 C-13.86 2.67 -27.72 2.34 -42 2 C-42 1.67 -42 1.34 -42 1 C-37.46514285 0.85578057 -32.93023182 0.71343984 -28.39526367 0.57275391 C-26.85618543 0.52475335 -25.31712243 0.47626135 -23.77807617 0.42724609 C-15.85091889 0.17510023 -7.9323857 -0.07219464 0 0 Z " fill="#17538E" transform="translate(42,203)"/>
<path d="M0 0 C5.35683849 -0.04941382 10.7135445 -0.08572607 16.07055664 -0.10986328 C17.89317129 -0.11992491 19.71576979 -0.1335756 21.53833008 -0.15087891 C24.15710435 -0.17512021 26.77566531 -0.18648138 29.39453125 -0.1953125 C30.21025101 -0.20563507 31.02597076 -0.21595764 31.8664093 -0.22659302 C35.77130756 -0.2273686 37.67524008 -0.21650661 41 2 C41 2.66 41 3.32 41 4 C39.85660156 3.68289062 38.71320312 3.36578125 37.53515625 3.0390625 C30.27585512 1.42588447 22.8397466 1.53188612 15.4375 1.375 C13.93682824 1.33674154 12.4361766 1.29768549 10.93554688 1.2578125 C7.29055056 1.16267804 3.64540046 1.07834092 0 1 C0 0.67 0 0.34 0 0 Z " fill="#1266B9" transform="translate(0,205)"/>
<path d="M0 0 C0.66 0.99 1.32 1.98 2 3 C-0.0568946 5.0568946 -4.35555998 4.25747076 -7.19140625 4.31640625 C-8.01124496 4.33718735 -8.83108368 4.35796844 -9.67576599 4.37937927 C-12.30458901 4.44496494 -14.93351504 4.50380126 -17.5625 4.5625 C-19.34050561 4.60567667 -21.11850065 4.64929067 -22.89648438 4.69335938 C-27.26421634 4.80065543 -31.63205227 4.90189704 -36 5 C-36 4.34 -36 3.68 -36 3 C-32.77843137 1.23333333 -30.54459374 0.91527624 -27 1.4375 C-21.63267406 2.11174889 -16.34003912 2.11137474 -10.9375 2.0625 C-9.49600586 2.05573242 -9.49600586 2.05573242 -8.02539062 2.04882812 C-5.68352578 2.03717706 -3.34179819 2.02082025 -1 2 C-0.67 1.34 -0.34 0.68 0 0 Z " fill="#3493F0" transform="translate(36,400)"/>
<path d="M0 0 C0.33 0 0.66 0 1 0 C3.81308683 6.32944538 4.30229277 14.31851851 1.984375 20.87109375 C1.65953125 21.57363281 1.3346875 22.27617187 1 23 C0.67 23 0.34 23 0 23 C0 15.41 0 7.82 0 0 Z " fill="#0B1DB4" transform="translate(440,248)"/>
<path d="M0 0 C1.39456452 0.00667256 2.78911118 0.01863093 4.18359375 0.03515625 C4.89451172 0.03966797 5.60542969 0.04417969 6.33789062 0.04882812 C8.09899388 0.06064761 9.86005411 0.07858362 11.62109375 0.09765625 C8.3549568 2.01067932 5.62664127 2.45440286 1.87109375 2.72265625 C0.88625 2.79742187 -0.09859375 2.8721875 -1.11328125 2.94921875 C-1.8609375 2.99820312 -2.60859375 3.0471875 -3.37890625 3.09765625 C-3.37890625 6.39765625 -3.37890625 9.69765625 -3.37890625 13.09765625 C-3.70890625 13.09765625 -4.03890625 13.09765625 -4.37890625 13.09765625 C-4.40577178 11.11856227 -4.42524 9.13936654 -4.44140625 7.16015625 C-4.45300781 6.05800781 -4.46460937 4.95585937 -4.4765625 3.8203125 C-4.33215524 -0.20576196 -4.12755453 0.11929348 0 0 Z " fill="#5E9AEF" transform="translate(96.37890625,306.90234375)"/>
<path d="M0 0 C0.66 0 1.32 0 2 0 C2.33 3.3 2.66 6.6 3 10 C-0.96 10 -4.92 10 -9 10 C-9 9.67 -9 9.34 -9 9 C-5.535 8.505 -5.535 8.505 -2 8 C-1.34 5.36 -0.68 2.72 0 0 Z " fill="#0C0F7E" transform="translate(441,396)"/>
<path d="M0 0 C2.97 0.33 5.94 0.66 9 1 C7.515 2.485 7.515 2.485 6 4 C5.34 4 4.68 4 4 4 C4 3.34 4 2.68 4 2 C3.01 2.495 3.01 2.495 2 3 C1.67 9.27 1.34 15.54 1 22 C0.67 22 0.34 22 0 22 C0 14.74 0 7.48 0 0 Z " fill="#1355CC" transform="translate(292,256)"/>
<path d="M0 0 C3.63 0 7.26 0 11 0 C11 0.99 11 1.98 11 3 C7.7 3 4.4 3 1 3 C0.67 2.01 0.34 1.02 0 0 Z " fill="#3995FA" transform="translate(25,209)"/>
<path d="M0 0 C0.33 0 0.66 0 1 0 C1.05423638 1.91635217 1.09289963 3.83314925 1.125 5.75 C1.14820313 6.81734375 1.17140625 7.8846875 1.1953125 8.984375 C1.00487687 11.92470106 0.52670104 13.52361878 -1 16 C-3.64 16 -6.28 16 -9 16 C-9 15.67 -9 15.34 -9 15 C-7.02 14.67 -5.04 14.34 -3 14 C-1.23384882 9.29026351 -0.51405169 4.96916636 0 0 Z " fill="#1B70E1" transform="translate(238,464)"/>
<path d="M0 0 C0.33 0 0.66 0 1 0 C1 4.95 1 9.9 1 15 C-1.7381462 10.8927807 -2.29686672 8.94777865 -2 4 C-1 1.625 -1 1.625 0 0 Z " fill="#157EE5" transform="translate(38,209)"/>
<path d="M0 0 C0.79921875 0.01804688 1.5984375 0.03609375 2.421875 0.0546875 C3.02515625 0.07789063 3.6284375 0.10109375 4.25 0.125 C4.25 1.115 4.25 2.105 4.25 3.125 C-0.04 2.795 -4.33 2.465 -8.75 2.125 C-5.00631258 0.25315629 -3.9099209 -0.11499767 0 0 Z " fill="#05326B" transform="translate(37.75,202.875)"/>
<path d="M0 0 C0.66 0 1.32 0 2 0 C2 0.66 2 1.32 2 2 C3.65 1.67 5.3 1.34 7 1 C5.75 2.5625 5.75 2.5625 4 4 C1.8125 3.6875 1.8125 3.6875 0 3 C0 4.98 0 6.96 0 9 C-0.33 9 -0.66 9 -1 9 C-1.09765625 2.84765625 -1.09765625 2.84765625 -1 1 C-0.67 0.67 -0.34 0.34 0 0 Z " fill="#0754E0" transform="translate(294,258)"/>
<path d="M0 0 C4.29 0 8.58 0 13 0 C13 0.66 13 1.32 13 2 C12.31292969 1.97679687 11.62585937 1.95359375 10.91796875 1.9296875 C10.01691406 1.91164062 9.11585937 1.89359375 8.1875 1.875 C7.29417969 1.85179687 6.40085937 1.82859375 5.48046875 1.8046875 C2.74597286 1.81714173 2.74597286 1.81714173 0 4 C0 2.68 0 1.36 0 0 Z " fill="#108DFC" transform="translate(0,211)"/>
<path d="M0 0 C0.33 1.32 0.66 2.64 1 4 C0.34 4 -0.32 4 -1 4 C-0.67 2.68 -0.34 1.36 0 0 Z " fill="#01052B" transform="translate(160,315)"/>
<path d="" fill="#000019" transform="translate(0,0)"/>
</svg>
